<svg width="65" height="64" viewBox="0 0 65 64" fill="none" xmlns="http://www.w3.org/2000/svg">
<g clip-path="url(#clip0_17_474)">
<path d="M34.0826 30.4189C33.9665 30.3026 33.8287 30.2104 33.6769 30.1475C33.5252 30.0846 33.3625 30.0523 33.1982 30.0523C33.034 30.0523 32.8713 30.0846 32.7196 30.1475C32.5678 30.2104 32.43 30.3026 32.3139 30.4189C31.8264 30.9064 31.8264 31.6976 32.3139 32.1864C32.8026 32.6739 33.5939 32.6739 34.0826 32.1864C34.5701 31.6976 34.5701 30.9064 34.0826 30.4189ZM49.9915 14.5087C47.549 12.0664 43.595 12.0662 41.1524 14.5087C38.7162 16.9449 38.7161 20.9099 41.1527 23.348C43.5897 25.7835 47.5547 25.7845 49.9915 23.3477C52.4337 20.9055 52.4342 16.9514 49.9915 14.5087ZM48.2237 21.5799C46.7621 23.0416 44.3829 23.0416 42.9205 21.5801C41.4586 20.1174 41.4585 17.7381 42.9202 16.2765C44.3856 14.8111 46.7581 14.8109 48.2237 16.2765C49.6891 17.7417 49.6894 20.1144 48.2237 21.5799Z" fill="#2C2C30"/>
<path d="M64.1337 0.366125C64.0124 0.244505 63.8673 0.149277 63.7075 0.0864209C63.5477 0.0235649 63.3766 -0.00556036 63.2049 0.000874748C62.9223 0.0109997 56.1929 0.2815 48.1936 3.10887C41.7836 5.37212 36.4407 8.6125 32.3133 12.74C31.3777 13.677 30.4816 14.6527 29.6273 15.6645C25.5463 13.2622 22.2761 14.0155 20.2087 15.1219C15.4486 17.6694 12.5022 24.5864 12.5022 29.5339C12.5024 29.8653 12.6342 30.1832 12.8686 30.4175C13.103 30.6519 13.4209 30.7837 13.7523 30.7839C13.9165 30.7839 14.0791 30.7516 14.2308 30.6888C14.3825 30.6259 14.5203 30.5339 14.6364 30.4177C17.1468 27.9074 20.2432 28.0644 21.2547 28.1974L21.6924 28.6351C20.8309 30.6851 20.1369 32.7236 19.6279 34.7062C19.4442 35.4237 19.5062 36.183 19.7793 36.8775C18.5758 37.4321 17.4147 38.2465 16.4037 39.2575C13.1861 42.4753 12.5327 50.317 12.5064 50.6493C12.4922 50.8294 12.5172 51.0105 12.5798 51.1801C12.6423 51.3497 12.7409 51.5037 12.8686 51.6315C12.9964 51.7593 13.1504 51.8578 13.32 51.9204C13.4895 51.9829 13.6707 52.008 13.8508 51.9938C14.1831 51.9676 22.0251 51.3143 25.2427 48.0966C26.2533 47.086 27.0676 45.925 27.6222 44.7217C28.3574 45.0109 29.1142 45.0465 29.7947 44.8721C31.7764 44.3632 33.8147 43.6695 35.8649 42.8079L36.3027 43.2456C36.4356 44.2572 36.5926 47.3536 34.0823 49.8638C33.9076 50.0386 33.7885 50.2613 33.7403 50.5037C33.6921 50.7462 33.7169 50.9975 33.8115 51.2259C33.9061 51.4543 34.0663 51.6495 34.2718 51.7868C34.4774 51.9241 34.719 51.9975 34.9662 51.9975C39.9137 51.9975 46.8306 49.0511 49.3781 44.291C50.4844 42.2239 51.2377 38.9536 48.8354 34.8725C49.8472 34.0182 50.8229 33.1221 51.7599 32.1865C55.8874 28.059 59.1277 22.7161 61.3909 16.3066C64.2184 8.30688 64.4888 1.57737 64.4989 1.29487C64.5114 0.948 64.3791 0.611625 64.1337 0.366125ZM15.2969 26.8452C16.0734 23.0874 18.3288 18.9638 21.3888 17.326C23.4337 16.2318 25.6688 16.339 28.0453 17.6399C26.0148 20.3121 24.2555 23.1798 22.7934 26.2008C22.7748 26.1893 22.5498 25.9064 22.1318 25.8121C21.9599 25.7732 18.6526 25.0619 15.2969 26.8452ZM23.4749 46.3288C21.7562 48.0475 17.7243 48.954 15.1759 49.3241C15.5462 46.7756 16.4528 42.7439 18.1714 41.0252C19.1339 40.0627 20.2499 39.333 21.3717 38.922L25.5782 43.1285C25.1672 44.2503 24.4376 45.3662 23.4749 46.3288ZM29.1737 42.4504C28.8119 42.543 28.3929 42.407 28.0814 42.096L25.6332 39.6479L22.4049 36.4195C22.0932 36.1071 21.9572 35.6883 22.0496 35.3271C22.4499 33.7679 22.9736 32.1681 23.6103 30.553L33.9472 40.8899C32.3318 41.5267 30.7323 42.0503 29.1737 42.4504ZM47.1742 43.1114C45.5364 46.1712 41.4129 48.4268 37.6552 49.2031C38.8533 46.9485 39.1174 44.0784 38.6797 42.338C38.5781 41.9338 38.3143 41.7305 38.2996 41.7066C41.3204 40.2445 44.1881 38.4852 46.8603 36.4548C48.1612 38.8315 48.2683 41.0669 47.1742 43.1114ZM49.9924 30.4188C48.8492 31.5602 47.6458 32.6397 46.3874 33.6527C43.3447 36.1027 39.9957 38.178 36.4227 39.83L24.6702 28.0777C26.3222 24.5045 28.3974 21.1555 30.8472 18.1131C31.8677 16.8465 32.9557 15.6335 34.0816 14.5077C37.7847 10.8045 42.5639 7.85725 48.2904 5.73575L58.7644 16.2097C56.6432 21.9361 53.6959 26.7154 49.9924 30.4188ZM59.6638 13.5734L50.9268 4.83637C55.6869 3.35787 59.8281 2.80425 61.8951 2.60525C61.6959 4.67262 61.1422 8.81375 59.6638 13.5734Z" fill="#2C2C30"/>
<path d="M30.5462 51.6311C30.0578 51.1429 29.2663 51.1432 28.7783 51.6313L25.2433 55.1676C24.7553 55.6558 24.7555 56.4473 25.2436 56.9353C25.732 57.4233 26.5235 57.4233 27.0115 56.9351L30.5465 53.3988C31.0345 52.9106 31.0343 52.1191 30.5462 51.6311ZM12.8691 33.9538C12.3811 33.4656 11.5897 33.4656 11.1013 33.9536L7.56508 37.4886C7.07683 37.9766 7.0767 38.7681 7.5647 39.2563C8.05258 39.7443 8.84395 39.7448 9.33245 39.2566L12.8687 35.7216C13.357 35.2336 13.3571 34.4421 12.8691 33.9538ZM21.7077 53.3999C21.2198 52.9118 20.4282 52.9118 19.94 53.3998L11.4725 61.8661C10.9842 62.3542 10.9842 63.1457 11.4723 63.6338C11.9602 64.1219 12.7518 64.1222 13.2401 63.6339L21.7076 55.1677C22.1958 54.6796 22.1958 53.8881 21.7077 53.3999ZM11.7077 53.3999C11.2197 52.9118 10.4281 52.9118 9.93995 53.3998L1.47245 61.8661C0.984203 62.3542 0.984203 63.1457 1.47233 63.6338C1.9602 64.1219 2.75183 64.1222 3.24008 63.6339L11.7076 55.1677C12.1958 54.6796 12.1958 53.8881 11.7077 53.3999ZM11.1001 42.7922C10.6121 42.3042 9.82045 42.3042 9.33233 42.7923L0.866078 51.2598C0.377953 51.7481 0.377953 52.5394 0.866203 53.0277C1.35433 53.5158 2.14583 53.5158 2.63395 53.0276L11.1002 44.5601C11.5883 44.0718 11.5883 43.2804 11.1001 42.7922ZM39.3852 25.1148C38.897 24.6267 38.1057 24.6267 37.6173 25.1148L35.8498 26.8823C35.3617 27.3704 35.3617 28.1619 35.8498 28.6502C36.3381 29.1383 37.1295 29.1383 37.6177 28.6502L39.3852 26.8827C39.8733 26.3946 39.8733 25.6031 39.3852 25.1148Z" fill="#2C2C30"/>
</g>
<defs>
<clipPath id="clip0_17_474">
<rect width="64" height="64" fill="white" transform="translate(0.5)"/>
</clipPath>
</defs>
</svg>
