<svg width="65" height="64" viewBox="0 0 65 64" fill="none" xmlns="http://www.w3.org/2000/svg">
<path d="M2.39429 11.745C2.64293 11.745 2.88138 11.6462 3.0572 11.4704C3.23302 11.2946 3.33179 11.0561 3.33179 10.8075V3.29125C3.33179 2.51038 3.96716 1.875 4.74804 1.875H51.2529C52.0338 1.875 52.6692 2.51038 52.6692 3.29125V26.2712C52.6692 26.789 53.0888 27.2087 53.6067 27.2087C54.1245 27.2087 54.5442 26.789 54.5442 26.2712V3.29125C54.5442 1.47637 53.0677 0 51.2529 0H4.74804C2.93329 0 1.45679 1.4765 1.45679 3.29125V10.8075C1.45679 11.0561 1.55556 11.2946 1.73137 11.4704C1.90719 11.6462 2.14565 11.745 2.39429 11.745ZM51.5887 42.8141C51.5887 40.1315 49.4057 37.9491 46.7224 37.9491C44.0398 37.9491 41.8574 40.1315 41.8574 42.8141C41.8574 45.4974 44.0398 47.6804 46.7224 47.6804C49.4057 47.6804 51.5887 45.4974 51.5887 42.8141ZM43.7324 42.8141C43.7324 41.1654 45.0737 39.8241 46.7224 39.8241C48.3718 39.8241 49.7137 41.1654 49.7137 42.8141C49.7137 44.4635 48.3719 45.8054 46.7224 45.8054C45.0738 45.8054 43.7324 44.4635 43.7324 42.8141Z" fill="#2C2C30"/>
<path d="M60.2518 53.125H54.5437V51.6239C55.7164 52.0425 57.0604 51.5792 57.7044 50.4635L58.8378 48.4991C59.0115 48.2005 59.1242 47.8703 59.1694 47.5278C59.2146 47.1853 59.1913 46.8372 59.1009 46.5037C59.0124 46.1699 58.8586 45.8568 58.6484 45.5828C58.4382 45.3087 58.1758 45.079 57.8763 44.907L56.8488 44.3134C56.9225 43.8156 56.9598 43.3136 56.9598 42.8137C56.9598 42.3139 56.9225 41.8119 56.8488 41.3141L57.8765 40.7204C59.1312 39.9951 59.5624 38.384 58.838 37.129L57.7043 35.1639C57.0604 34.0485 55.7173 33.585 54.5442 34.0034V30.6437C54.5442 30.126 54.1245 29.7062 53.6067 29.7062C53.0888 29.7062 52.6692 30.126 52.6692 30.6437V34.4815C51.9932 33.9966 51.2599 33.5969 50.486 33.2917V32.1075C50.486 30.658 49.3068 29.4787 47.8574 29.4787H45.5874C44.1379 29.4787 42.9587 30.658 42.9587 32.1075V33.2917C42.0225 33.6602 41.1465 34.1664 40.3598 34.7935L39.3325 34.2C38.0762 33.477 36.4655 33.9096 35.7418 35.1636L34.6065 37.129C33.8823 38.3841 34.3137 39.9952 35.5685 40.7207L36.597 41.3145C36.5233 41.8124 36.486 42.3145 36.486 42.8139C36.486 43.3132 36.5233 43.8152 36.597 44.3132L35.5682 44.9072C34.3129 45.6329 33.8817 47.2442 34.6069 48.499L35.7417 50.4637C36.4658 51.7181 38.0767 52.1506 39.3339 51.4269L40.3598 50.8341C41.1466 51.4612 42.0225 51.9673 42.9587 52.3359V53.125H13.748C11.9325 53.125 10.4554 54.6015 10.4554 56.4169L10.4568 58.49C10.4568 60.4431 8.90241 62.0734 6.98741 62.1242C6.95729 62.1252 6.92691 62.125 6.89529 62.125C5.94329 62.124 5.04841 61.7535 4.37591 61.082C3.70266 60.4087 3.33179 59.514 3.33179 58.5625V15.18C3.33179 14.6622 2.91216 14.2425 2.39429 14.2425C1.87641 14.2425 1.45679 14.6622 1.45679 15.18V58.5625C1.45679 60.0149 2.02266 61.3805 3.05054 62.4084C4.07704 63.4332 5.44166 63.9985 6.89679 64H28.178C28.6959 64 29.1155 63.5802 29.1155 63.0625C29.1155 62.5447 28.6959 62.125 28.178 62.125H10.9633C11.8133 61.1496 12.3318 59.873 12.3318 58.4894L12.3304 56.4162C12.3304 55.6352 12.9664 55 13.748 55H60.2517C61.0325 55 61.6679 55.6354 61.6679 56.4162V58.5625C61.6679 59.5136 61.2973 60.4086 60.6254 61.0816C59.9515 61.7545 59.0567 62.125 58.1054 62.125H32.5529C32.035 62.125 31.6154 62.5447 31.6154 63.0625C31.6154 63.5802 32.035 64 32.5529 64H58.1054C59.5569 64 60.9224 63.4347 61.9514 62.4074C62.9778 61.3794 63.5429 60.014 63.5429 58.5625V56.4162C63.543 54.6015 62.0665 53.125 60.2518 53.125ZM52.6687 53.125H50.4862V52.3357C51.2598 52.0307 51.9929 51.6312 52.6687 51.1465V53.125ZM44.1812 50.7819C43.0354 50.4182 41.9823 49.8097 41.0952 48.9985C40.9481 48.8644 40.7621 48.7806 40.5643 48.7592C40.3664 48.7379 40.1669 48.78 39.9945 48.8796L38.3972 49.8026C38.036 50.0104 37.5734 49.8865 37.3653 49.5262L36.2302 47.561C36.0222 47.2011 36.1462 46.7389 36.506 46.5307L38.106 45.607C38.2781 45.5076 38.4141 45.3562 38.4945 45.1746C38.5749 44.9929 38.5956 44.7904 38.5534 44.5962C38.4258 44.0081 38.361 43.4085 38.361 42.8139C38.361 42.2192 38.4258 41.6196 38.5534 41.0315C38.5956 40.8373 38.5749 40.6348 38.4945 40.4532C38.4141 40.2715 38.2781 40.1201 38.106 40.0207L36.5065 39.0972C36.3335 38.9969 36.2073 38.8321 36.1555 38.6389C36.1037 38.4457 36.1306 38.2399 36.2303 38.0665L37.3655 36.1012C37.5733 35.7412 38.0362 35.6174 38.3958 35.8244L39.9945 36.7481C40.1669 36.8477 40.3664 36.8898 40.5643 36.8684C40.7621 36.8471 40.9481 36.7633 41.0952 36.6292C41.9823 35.818 43.0353 35.2095 44.1812 34.8459C44.3706 34.7854 44.5359 34.6663 44.6532 34.5058C44.7705 34.3452 44.8337 34.1516 44.8337 33.9527V32.1077C44.8339 31.9079 44.9134 31.7163 45.0547 31.575C45.196 31.4337 45.3876 31.3542 45.5874 31.354H47.8574C48.0572 31.3543 48.2488 31.4338 48.3901 31.5751C48.5313 31.7164 48.6108 31.9079 48.611 32.1077V33.9527C48.611 34.1516 48.6742 34.3453 48.7915 34.5058C48.9088 34.6663 49.0741 34.7854 49.2635 34.8459C50.4093 35.2095 51.4623 35.8181 52.3495 36.6292C52.4966 36.7633 52.6826 36.8471 52.8805 36.8685C53.0784 36.8899 53.278 36.8477 53.4503 36.7481L55.0493 35.825C55.4103 35.6171 55.8725 35.7411 56.0804 36.1012L57.2143 38.0664C57.3141 38.2397 57.341 38.4456 57.2893 38.6388C57.2376 38.832 57.1114 38.9969 56.9384 39.0972L55.3397 40.021C55.1677 40.1204 55.0317 40.2718 54.9513 40.4535C54.871 40.6351 54.8504 40.8376 54.8925 41.0317C55.0202 41.6192 55.0849 42.2189 55.0849 42.814C55.0849 43.4091 55.0202 44.0087 54.8925 44.5962C54.8504 44.7904 54.871 44.9928 54.9513 45.1745C55.0317 45.3562 55.1677 45.5076 55.3397 45.607L56.9382 46.5306C57.0242 46.58 57.0995 46.646 57.1599 46.7247C57.2203 46.8034 57.2644 46.8933 57.2898 46.9892C57.3157 47.0849 57.3224 47.1848 57.3094 47.2831C57.2964 47.3813 57.264 47.4761 57.2142 47.5617L56.0804 49.5266C55.9802 49.6998 55.8154 49.8261 55.6222 49.878C55.429 49.9298 55.2231 49.9029 55.0497 49.8032L53.4503 48.8799C53.278 48.7803 53.0784 48.7381 52.8805 48.7595C52.6826 48.7808 52.4966 48.8646 52.3495 48.9987C51.4624 49.8099 50.4094 50.4185 49.2635 50.7821C49.0741 50.8426 48.9088 50.9617 48.7915 51.1222C48.6743 51.2827 48.611 51.4764 48.611 51.6752V53.125H44.8335V51.675C44.8336 51.4762 44.7704 51.2825 44.6532 51.1219C44.5359 50.9614 44.3706 50.8423 44.1812 50.7819Z" fill="#2C2C30"/>
<path d="M7.48471 17.1926C7.48471 17.4413 7.58349 17.6797 7.7593 17.8555C7.93512 18.0314 8.17357 18.1301 8.42221 18.1301H47.579C48.0968 18.1301 48.5165 17.7104 48.5165 17.1926C48.5165 16.6749 48.0968 16.2551 47.579 16.2551H8.42221C8.2991 16.2551 8.17718 16.2793 8.06343 16.3265C7.94968 16.3736 7.84632 16.4426 7.75927 16.5297C7.67221 16.6167 7.60315 16.7201 7.55604 16.8338C7.50894 16.9476 7.4847 17.0695 7.48471 17.1926ZM24.987 20.495H9.30984C7.33909 20.495 5.73584 22.0984 5.73584 24.0691V32.5133C5.73584 34.484 7.33909 36.0874 9.30984 36.0874H24.9868C26.9577 36.0874 28.561 34.484 28.561 32.5133V24.0691C28.561 22.0983 26.9577 20.495 24.987 20.495ZM26.686 32.5133C26.686 33.4501 25.9237 34.2124 24.9868 34.2124H9.30984C8.37309 34.2124 7.61084 33.4501 7.61084 32.5133V24.0691C7.61084 23.1323 8.37309 22.37 9.30984 22.37H24.9868C25.9237 22.37 26.686 23.1323 26.686 24.0691V32.5133ZM50.2592 25.0489C50.2592 24.8002 50.1604 24.5618 49.9846 24.386C49.8088 24.2101 49.5704 24.1114 49.3217 24.1114H31.8633C31.3455 24.1114 30.9258 24.5311 30.9258 25.0489C30.9258 25.5666 31.3455 25.9864 31.8633 25.9864H49.3217C49.5704 25.9864 49.8088 25.8876 49.9846 25.7118C50.1604 25.536 50.2592 25.2975 50.2592 25.0489ZM43.5253 28.6653C43.5253 28.4166 43.4266 28.1782 43.2508 28.0023C43.0749 27.8265 42.8365 27.7278 42.5878 27.7278H31.8633C31.3455 27.7278 30.9258 28.1475 30.9258 28.6653C30.9258 29.183 31.3455 29.6028 31.8633 29.6028H42.5878C42.8365 29.6028 43.0749 29.504 43.2508 29.3282C43.4266 29.1523 43.5253 28.9139 43.5253 28.6653ZM5.73596 39.3896C5.73596 39.6383 5.83474 39.8767 6.01055 40.0525C6.18637 40.2284 6.42482 40.3271 6.67346 40.3271H31.8635C32.3813 40.3271 32.801 39.9074 32.801 39.3896C32.801 38.8719 32.3813 38.4521 31.8635 38.4521H6.67346C6.42482 38.4521 6.18637 38.5509 6.01055 38.7267C5.83474 38.9025 5.73596 39.141 5.73596 39.3896ZM32.8008 46.6225C32.8008 46.3739 32.7021 46.1354 32.5263 45.9596C32.3504 45.7838 32.112 45.685 31.8633 45.685H6.67346C6.15559 45.685 5.73596 46.1048 5.73596 46.6225C5.73596 47.1403 6.15559 47.56 6.67346 47.56H31.8635C32.1121 47.56 32.3505 47.4612 32.5263 47.2854C32.7021 47.1096 32.8008 46.8711 32.8008 46.6225ZM6.67346 49.405C6.15559 49.405 5.73596 49.8248 5.73596 50.3425C5.73596 50.8603 6.15559 51.28 6.67346 51.28H18.7697C19.2876 51.28 19.7072 50.8603 19.7072 50.3425C19.7072 49.8248 19.2876 49.405 18.7697 49.405H6.67346ZM34.422 43.0061C34.422 42.7575 34.3232 42.519 34.1474 42.3432C33.9716 42.1674 33.7331 42.0686 33.4845 42.0686H6.67346C6.15559 42.0686 5.73596 42.4884 5.73596 43.0061C5.73596 43.5239 6.15559 43.9436 6.67346 43.9436H33.4845C33.7331 43.9436 33.9716 43.8449 34.1474 43.669C34.3232 43.4932 34.422 43.2548 34.422 43.0061Z" fill="#2C2C30"/>
</svg>
