<svg width="65" height="64" viewBox="0 0 65 64" fill="none" xmlns="http://www.w3.org/2000/svg">
<g clip-path="url(#clip0_17_399)">
<path d="M58.9471 8.11124L58.4261 7.59011C54.8526 4.01674 50.0871 2.07086 45.0083 2.12411C40.3641 2.16874 35.9671 3.86711 32.4993 6.93211C29.0324 3.87899 24.6014 2.21099 19.8929 2.21099C14.7728 2.21099 9.98088 4.18311 6.4 7.76411L6.053 8.11099C2.472 11.6921 0.5 16.4532 0.5 21.5176C0.5 26.5821 2.47213 31.3431 6.05288 34.9234L9.9115 38.782L9.199 39.5679C7.41313 41.5377 7.48687 44.5537 9.367 46.434C10.3421 47.4091 11.6842 47.9347 13.0615 47.8882C12.9386 49.3061 13.4365 50.7609 14.5455 51.8359C15.4701 52.7321 16.6789 53.2212 17.9615 53.2212C18.2486 53.2212 18.5356 53.1967 18.8184 53.1476C18.8762 54.3467 19.377 55.4816 20.2236 56.3326C21.1459 57.2621 22.3669 57.7704 23.6717 57.7704C24.1127 57.7704 24.5536 57.712 24.9789 57.5949C25.1127 58.587 25.5521 59.546 26.298 60.3312C27.2262 61.3086 28.4797 61.8574 29.8276 61.8761C31.159 61.8965 32.4558 61.3697 33.3989 60.4306L48.4168 45.4539C48.9058 44.9647 48.9058 44.1717 48.4166 43.6827C47.9275 43.1935 47.1345 43.1937 46.6454 43.6829L31.6318 58.6554C30.8909 59.3931 29.7227 59.5817 28.7887 59.1094C27.9128 58.6664 27.3708 57.7149 27.4549 56.7352C27.5011 56.1962 27.7309 55.684 28.0925 55.2829L37.2566 45.2595C37.7234 44.749 37.6879 43.9567 37.1774 43.49C36.6669 43.023 35.8746 43.0587 35.4079 43.5691L25.4154 54.4985C24.9757 54.9792 24.375 55.2515 23.7236 55.2647C23.0681 55.2776 22.4609 55.0305 22.002 54.5682C21.1154 53.6745 21.086 52.2465 21.9352 51.3172L32.3401 40.0812C32.8115 39.575 32.7834 38.7824 32.2771 38.311C31.7709 37.8396 30.9783 37.868 30.507 38.3741L19.728 49.9491C19.5103 50.1843 19.2476 50.3734 18.9554 50.5051C18.6632 50.6367 18.3475 50.7083 18.0271 50.7155C17.3736 50.7306 16.7576 50.4912 16.2891 50.037C15.346 49.1229 15.3026 47.6484 16.19 46.6801L27.1526 34.7207C27.62 34.2109 27.5856 33.4186 27.0758 32.9511C26.5658 32.4836 25.7735 32.5182 25.3061 33.0281L14.7124 44.5852C13.7734 45.609 12.1217 45.6454 11.1386 44.6625C10.2043 43.7279 10.1675 42.229 11.0551 41.25L30.5591 19.7366L34.9113 23.3666C37.0828 25.1776 40.3285 25.0087 42.3003 22.982C43.3463 21.9069 43.9061 20.4309 43.8363 18.9324C43.7664 17.434 43.0716 16.0162 41.9301 15.043L34.3867 8.61186C37.3665 6.07174 41.1787 4.66586 45.1135 4.62811C45.0594 4.62811 45.1677 4.62761 45.1135 4.62811C49.4535 4.62811 53.5993 6.30499 56.655 9.36074L57.176 9.88186C60.2837 12.9896 61.9953 17.1217 61.9953 21.5171C61.9953 25.9125 60.2837 30.0442 57.176 33.1515L54.5206 35.807C54.0315 36.2961 54.0316 37.0891 54.5207 37.5782C55.0099 38.0672 55.8029 38.0672 56.292 37.5782L58.9473 34.9227C62.5279 31.3431 64.5 26.5822 64.5 21.5176C64.5 16.4532 62.528 11.6921 58.9471 8.11124ZM41.3339 19.0495C41.3721 19.8705 41.0776 20.6469 40.5046 21.2359C39.44 22.3301 37.6879 22.4211 36.5155 21.4434L31.2405 17.0436C30.9923 16.8366 30.6736 16.7336 30.3512 16.756C30.0287 16.7785 29.7275 16.9248 29.5104 17.1642L11.596 36.924L7.824 33.1521C4.71637 30.0449 3.00487 25.913 3.00487 21.5177C3.00487 17.1225 4.71637 12.9902 7.824 9.88249L8.171 9.53561C11.2787 6.42774 15.4416 4.71611 19.8926 4.71611C24.3436 4.71611 28.5065 6.42774 31.6143 9.53561C31.6284 9.54974 40.3046 16.9497 40.3046 16.9497C40.9301 17.4829 41.2955 18.2286 41.3339 19.0495Z" fill="#2C2C30"/>
<path d="M50.542 39.7661C50.0698 40.2697 50.0953 41.0607 50.5988 41.533C51.1023 42.0052 51.8934 41.9797 52.3657 41.4761C52.8379 40.9725 52.8124 40.1815 52.3089 39.7092C51.8053 39.2371 51.0142 39.2625 50.542 39.7661Z" fill="#2C2C30"/>
</g>
<defs>
<clipPath id="clip0_17_399">
<rect width="64" height="64" fill="white" transform="translate(0.5)"/>
</clipPath>
</defs>
</svg>
